<svg id="Lager_1" data-name="Lager 1" xmlns="http://www.w3.org/2000/svg" viewBox="0 0 362.58 137.03"><defs><style>.cls-1{fill:#454444;}.cls-2{fill:#6dc7dc;}.cls-3{fill:#cfd600;}.cls-4{fill:#89be3f;}</style></defs><path class="cls-1" d="M31.87,57.41A15.41,15.41,0,0,1,37.42,66H31.63a10.26,10.26,0,0,0-3.8-4.86,11,11,0,0,0-6.38-1.79,10,10,0,0,0-5.38,1.48A10.21,10.21,0,0,0,12.34,65,14.34,14.34,0,0,0,11,71.47a14.17,14.17,0,0,0,1.36,6.38,10.21,10.21,0,0,0,3.73,4.23,9.91,9.91,0,0,0,5.38,1.48,11,11,0,0,0,6.38-1.79A10.27,10.27,0,0,0,31.63,77h5.79a15.33,15.33,0,0,1-5.55,8.54,16.52,16.52,0,0,1-10.32,3.13,16.36,16.36,0,0,1-8.47-2.18,14.75,14.75,0,0,1-5.69-6.07,20.87,20.87,0,0,1,0-17.83,15,15,0,0,1,5.69-6.1,16.27,16.27,0,0,1,8.47-2.2A16.41,16.41,0,0,1,31.87,57.41Z"/><path class="cls-1" d="M48.22,53V88.34H42.77V53Z"/><path class="cls-1" d="M73.66,63.29A11.71,11.71,0,0,1,78.44,68a15.93,15.93,0,0,1,0,14.4,11.64,11.64,0,0,1-4.78,4.68,15.31,15.31,0,0,1-13.75,0,11.84,11.84,0,0,1-4.78-4.71,15.7,15.7,0,0,1,0-14.37,12,12,0,0,1,4.78-4.68,15.31,15.31,0,0,1,13.75,0ZM62.9,67.35a7,7,0,0,0-2.84,2.94,11.5,11.5,0,0,0,0,9.73,7,7,0,0,0,2.84,2.92,8.3,8.3,0,0,0,7.75,0A7,7,0,0,0,73.49,80a11.5,11.5,0,0,0,0-9.73,7,7,0,0,0-2.84-2.94,8.38,8.38,0,0,0-7.75,0Z"/><path class="cls-1" d="M109.69,62V88.34h-5.5V82.61a8.5,8.5,0,0,1-3.49,4.51,10.45,10.45,0,0,1-5.79,1.6,9.58,9.58,0,0,1-7.36-3q-2.77-3-2.77-8.46V62h5.45V76.72A7.79,7.79,0,0,0,92,82.25a6.49,6.49,0,0,0,5,1.93,6.8,6.8,0,0,0,5.21-2.1,8.69,8.69,0,0,0,2-6.12V62Z"/><path class="cls-1" d="M132.86,63.43a9.25,9.25,0,0,1,3.54,4.69V53h5.5V88.34h-5.5V82.22a9.25,9.25,0,0,1-3.54,4.69,10.42,10.42,0,0,1-6.12,1.77,11.62,11.62,0,0,1-6.14-1.63,11,11,0,0,1-4.23-4.68,16,16,0,0,1-1.53-7.22A15.86,15.86,0,0,1,116.37,68a11.07,11.07,0,0,1,4.23-4.68,11.72,11.72,0,0,1,6.14-1.63A10.42,10.42,0,0,1,132.86,63.43Zm-10.25,5.33a8.94,8.94,0,0,0-2.18,6.39,8.92,8.92,0,0,0,2.18,6.38,7.54,7.54,0,0,0,5.8,2.32,7.94,7.94,0,0,0,4.12-1.08,7.6,7.6,0,0,0,2.86-3,10.42,10.42,0,0,0,0-9.16,7.62,7.62,0,0,0-2.86-3.06,7.94,7.94,0,0,0-4.12-1.08A7.58,7.58,0,0,0,122.61,68.76Z"/><path class="cls-1" d="M169.6,63.29A11.13,11.13,0,0,1,173.83,68a15.86,15.86,0,0,1,1.53,7.18,16,16,0,0,1-1.53,7.22,11.08,11.08,0,0,1-4.23,4.68,11.62,11.62,0,0,1-6.14,1.63,10.42,10.42,0,0,1-6.12-1.77,9.25,9.25,0,0,1-3.54-4.69v18.65h-5.45V62h5.45v6.12a9.25,9.25,0,0,1,3.54-4.69,10.42,10.42,0,0,1,6.12-1.77A11.72,11.72,0,0,1,169.6,63.29Zm-11.93,4.23a7.71,7.71,0,0,0-2.87,3.06,10.51,10.51,0,0,0,0,9.16,7.7,7.7,0,0,0,2.87,3,7.92,7.92,0,0,0,4.12,1.08,7.65,7.65,0,0,0,5.83-2.32,8.93,8.93,0,0,0,2.2-6.38,8.94,8.94,0,0,0-2.2-6.36,7.64,7.64,0,0,0-5.83-2.35A7.92,7.92,0,0,0,157.67,67.52Z"/><path class="cls-1" d="M186,53V88.34h-5.45V53Z"/><path class="cls-1" d="M209.32,63.43a9.49,9.49,0,0,1,3.58,4.69V62h5.45V88.34H212.9V82.22a9.49,9.49,0,0,1-3.58,4.69,10.42,10.42,0,0,1-6.12,1.77,11.66,11.66,0,0,1-6.15-1.63,11.08,11.08,0,0,1-4.23-4.68,16,16,0,0,1-1.53-7.22A15.86,15.86,0,0,1,192.82,68a11.13,11.13,0,0,1,4.23-4.68,11.75,11.75,0,0,1,6.15-1.63A10.42,10.42,0,0,1,209.32,63.43Zm-10.26,5.33a9,9,0,0,0-2.17,6.39,9,9,0,0,0,2.17,6.38,7.58,7.58,0,0,0,5.81,2.32A7.88,7.88,0,0,0,209,82.77a7.56,7.56,0,0,0,2.87-3,10.51,10.51,0,0,0,0-9.16A7.58,7.58,0,0,0,209,67.52a7.88,7.88,0,0,0-4.11-1.08A7.61,7.61,0,0,0,199.06,68.76Z"/><path class="cls-1" d="M246.9,64.53q2.78,3,2.77,8.46V88.34h-5.45V73.57a7.71,7.71,0,0,0-1.82-5.48,6.47,6.47,0,0,0-5-1.93,6.81,6.81,0,0,0-5.21,2.08c-1.31,1.38-2,3.42-2,6.09v14h-5.45V62h5.45v5.78a8.87,8.87,0,0,1,3.54-4.59,10.26,10.26,0,0,1,5.74-1.62A9.62,9.62,0,0,1,246.9,64.53Z"/><path class="cls-1" d="M278.06,64.53q2.78,3,2.77,8.46V88.34h-5.45V73.57a7.71,7.71,0,0,0-1.82-5.48,6.49,6.49,0,0,0-5-1.93,6.81,6.81,0,0,0-5.21,2.08c-1.31,1.38-2,3.42-2,6.09v14H256V62h5.45v5.78A8.87,8.87,0,0,1,265,63.19a10.25,10.25,0,0,1,5.73-1.62A9.64,9.64,0,0,1,278.06,64.53Z"/><path class="cls-1" d="M292.48,62V88.34H287V62Z"/><path class="cls-1" d="M321.08,64.53q2.78,3,2.78,8.46V88.34h-5.45V73.57a7.71,7.71,0,0,0-1.82-5.48,6.49,6.49,0,0,0-5-1.93,6.83,6.83,0,0,0-5.22,2.08c-1.3,1.38-2,3.42-2,6.09v14H299V62h5.45v5.78A8.87,8.87,0,0,1,308,63.19a10.28,10.28,0,0,1,5.74-1.62A9.62,9.62,0,0,1,321.08,64.53Z"/><path class="cls-1" d="M346.38,63.43A9.51,9.51,0,0,1,350,68.12V62h5.45V88.63a13.71,13.71,0,0,1-1.51,6.53,11.06,11.06,0,0,1-4.32,4.47,13.27,13.27,0,0,1-6.7,1.62,14.31,14.31,0,0,1-9-2.63,11.32,11.32,0,0,1-4.28-7.12h5.4a6.49,6.49,0,0,0,2.58,3.66,8.49,8.49,0,0,0,4.88,1.31,7.42,7.42,0,0,0,5.35-2A7.66,7.66,0,0,0,350,88.63V82.22a9.51,9.51,0,0,1-3.59,4.69,10.42,10.42,0,0,1-6.12,1.77,11.62,11.62,0,0,1-6.14-1.63,11.08,11.08,0,0,1-4.23-4.68,16,16,0,0,1-1.53-7.22A15.86,15.86,0,0,1,329.89,68a11.13,11.13,0,0,1,4.23-4.68,11.72,11.72,0,0,1,6.14-1.63A10.42,10.42,0,0,1,346.38,63.43Zm-10.25,5.33A9,9,0,0,0,334,75.15a9,9,0,0,0,2.18,6.38,7.56,7.56,0,0,0,5.81,2.32,7.88,7.88,0,0,0,4.11-1.08,7.7,7.7,0,0,0,2.87-3,10.51,10.51,0,0,0,0-9.16,7.71,7.71,0,0,0-2.87-3.06,7.88,7.88,0,0,0-4.11-1.08A7.6,7.6,0,0,0,336.13,68.76Z"/><rect class="cls-2" x="282.79" y="42.52" width="27.79" height="7.95" rx="2.04" transform="translate(539.35 -130.42) rotate(135)"/><rect class="cls-3" x="275.55" y="45.33" width="19.84" height="7.95" rx="2.04" transform="translate(118.47 -187.42) rotate(45)"/><path class="cls-4" d="M293.85,52.06l-4.18-4.17-4.17,4.17a2,2,0,0,0,0,2.89l2.73,2.73a2,2,0,0,0,2.89,0L293.85,55A2,2,0,0,0,293.85,52.06Z"/></svg>